<?xml version="1.0" standalone="no"?>
<!DOCTYPE svg PUBLIC "-//W3C//DTD SVG 20010904//EN"
 "http://www.w3.org/TR/2001/REC-SVG-20010904/DTD/svg10.dtd">
<svg version="1.0" xmlns="http://www.w3.org/2000/svg"
 width="170.000000pt" height="170.000000pt" viewBox="0 0 170.000000 170.000000"
 preserveAspectRatio="xMidYMid meet">
<metadata>
Created by potrace 1.11, written by Peter Selinger 2001-2013
</metadata>
<g transform="translate(0.000000,170.000000) scale(0.100000,-0.100000)"
fill="#000000" stroke="none">
<path d="M883 1535 c-9 -19 -9 -51 1 -105 2 -14 5 -28 5 -32 1 -5 10 -8 20 -8
13 0 21 9 26 30 9 39 25 48 26 16 3 -48 4 -51 23 -51 13 0 24 15 37 50 10 28
19 58 19 68 0 31 -24 13 -35 -25 -13 -48 -22 -55 -23 -18 -2 75 -29 91 -47 28
-15 -52 -25 -57 -26 -12 0 21 -4 48 -8 59 -8 19 -8 19 -18 0z"/>
<path d="M705 1480 c-11 -4 -24 -5 -28 -3 -9 5 -8 -70 1 -94 2 -7 11 -13 19
-13 12 0 13 8 8 40 -5 32 -4 40 8 40 9 0 17 -14 21 -35 7 -34 19 -45 30 -27
10 16 -7 83 -23 91 -9 5 -25 5 -36 1z"/>
<path d="M1072 1453 c-7 -3 -17 -16 -22 -29 -18 -45 24 -93 66 -77 18 7 13 28
-7 29 -34 2 -40 5 -34 14 4 6 15 6 32 -1 32 -12 47 5 31 35 -18 33 -36 41 -66
29z m38 -33 c0 -5 -4 -10 -9 -10 -6 0 -13 5 -16 10 -3 6 1 10 9 10 9 0 16 -4
16 -10z"/>
<path d="M564 1426 c-23 -36 -1 -81 40 -81 16 0 34 7 40 17 13 22 1 35 -18 18
-9 -6 -21 -10 -28 -7 -8 3 1 11 20 18 36 15 41 33 13 49 -31 16 -49 12 -67
-14z m46 -10 c0 -11 -19 -15 -25 -6 -3 5 1 10 9 10 9 0 16 -2 16 -4z"/>
<path d="M479 1439 c-6 -23 -5 -69 2 -69 5 0 17 -16 26 -35 13 -26 20 -32 29
-24 11 9 11 16 0 38 -10 18 -11 32 -5 44 7 12 6 17 -2 17 -7 0 -21 7 -31 17
-10 9 -18 14 -19 12z"/>
<path d="M1162 1390 c-17 -28 -15 -54 6 -73 23 -21 62 -22 62 -2 0 9 -9 15
-25 15 -14 0 -25 5 -25 11 0 6 9 8 23 4 12 -4 26 -8 32 -9 15 -2 18 43 5 60
-18 21 -63 18 -78 -6z m58 -20 c0 -5 -7 -7 -15 -4 -8 4 -12 10 -9 15 6 11 24
2 24 -11z"/>
<path d="M396 1344 c-9 -8 -16 -23 -16 -32 0 -29 30 -62 55 -62 43 0 60 63 27
93 -23 21 -46 22 -66 1z m52 -42 c-2 -8 -8 -17 -14 -19 -13 -4 -27 24 -19 37
9 14 36 -1 33 -18z"/>
<path d="M1280 1350 c-8 -5 -11 -20 -7 -41 3 -19 3 -28 0 -21 -7 18 -35 15
-31 -4 5 -27 35 -41 56 -27 18 12 18 15 6 48 -7 17 -6 18 8 7 18 -15 31 -2 22
21 -7 18 -37 27 -54 17z"/>
<path d="M1380 1310 c0 -5 -5 -9 -12 -7 -6 1 -14 -7 -16 -18 -2 -11 -11 -28
-19 -37 -8 -9 -13 -25 -11 -35 3 -16 7 -14 32 12 15 17 33 30 38 30 6 0 12 15
14 33 3 23 0 32 -11 32 -8 0 -15 -4 -15 -10z"/>
<path d="M296 1260 l-29 -31 24 -27 c27 -31 41 -42 52 -42 13 0 7 21 -13 48
-14 18 -17 29 -10 36 7 7 18 2 35 -19 20 -22 28 -26 37 -17 9 9 4 20 -22 47
-19 19 -36 35 -39 35 -4 0 -19 -14 -35 -30z"/>
<path d="M786 1161 c-53 -53 -63 -59 -100 -59 -82 0 -78 3 -61 -39 9 -20 18
-39 20 -41 2 -3 20 13 40 33 19 21 38 35 42 31 4 -4 28 -63 54 -132 l46 -124
-32 -46 -32 -45 -52 128 c-29 70 -57 133 -62 138 -7 7 -35 -17 -83 -67 -40
-43 -78 -78 -84 -78 -18 0 -33 38 -30 72 4 40 42 69 102 75 l46 6 -3 46 -3 46
-63 -2 c-157 -4 -242 -122 -184 -254 11 -25 28 -53 38 -62 17 -18 16 -20 -18
-55 l-36 -37 261 -263 260 -263 95 98 c52 54 169 173 259 264 l165 166 -86 85
c-47 47 -85 88 -85 92 0 3 12 6 28 6 44 0 98 19 118 41 24 27 28 105 6 141
-20 34 -50 41 -175 43 l-98 1 3 -46 3 -45 78 -1 c81 -2 102 -9 88 -32 -5 -9
-31 -13 -76 -13 -64 0 -70 2 -102 34 -31 31 -33 36 -22 60 15 34 10 39 -38 39
-32 0 -45 8 -97 59 -33 32 -63 59 -66 59 -3 0 -32 -27 -64 -59z m114 -166 l12
-30 23 63 c13 35 25 66 28 68 6 7 67 -52 67 -64 0 -12 -110 -264 -119 -275 -4
-4 -22 30 -40 75 -19 46 -42 102 -52 125 -25 55 -24 58 13 105 l32 40 12 -38
c6 -22 17 -52 24 -69z m240 -71 l50 -47 0 -67 0 -67 -55 0 -55 1 0 113 c0 62
2 113 5 113 3 0 28 -21 55 -46z m-559 -94 c14 0 17 -8 16 -42 l-3 -43 -59 -1
c-33 -1 -75 5 -94 12 l-34 14 34 36 c31 33 37 35 78 30 24 -3 52 -6 62 -6z"/>
<path d="M233 1179 c-46 -17 -41 -81 8 -98 25 -9 32 -7 46 9 20 23 26 57 13
65 -6 3 -14 -5 -19 -18 -6 -14 -15 -28 -21 -32 -7 -4 -5 7 4 23 9 17 16 35 16
40 0 15 -23 20 -47 11z m17 -34 c0 -8 -7 -15 -16 -15 -14 0 -14 3 -4 15 7 8
14 15 16 15 2 0 4 -7 4 -15z"/>
<path d="M1463 1157 c-45 -34 -62 -78 -22 -57 16 9 25 8 39 -5 46 -42 99 16
65 69 -22 33 -31 33 -82 -7z m60 -22 c4 -8 3 -16 -1 -19 -13 -8 -35 11 -28 23
10 15 23 14 29 -4z"/>
<path d="M159 1083 c-1 -4 -1 -11 -1 -15 1 -3 -5 -12 -13 -18 -29 -24 -10 -66
36 -83 19 -6 32 1 47 28 11 19 11 19 12 -2 0 -13 -4 -23 -10 -23 -5 0 -10 -7
-10 -15 0 -23 25 -18 39 9 22 41 10 66 -46 98 -29 17 -54 26 -54 21z m49 -60
c5 -18 -28 -29 -38 -12 -5 7 -6 17 -3 22 7 12 35 5 41 -10z"/>
<path d="M1508 1039 c-22 -13 -23 -52 -2 -84 l16 -25 39 22 c44 24 43 23 28
67 -9 24 -17 31 -37 31 -15 0 -35 -5 -44 -11z m52 -39 c0 -13 -7 -20 -20 -20
-22 0 -28 25 -7 33 22 10 27 7 27 -13z"/>
<path d="M103 943 c-7 -2 -13 -16 -13 -29 0 -21 -3 -23 -19 -14 -13 7 -22 7
-26 0 -11 -17 3 -28 60 -46 50 -15 69 -14 70 4 1 4 5 17 9 30 14 41 -35 74
-81 55z m54 -49 c0 -8 -8 -14 -18 -14 -20 0 -33 15 -25 29 9 14 43 2 43 -15z"/>
<path d="M1563 915 c-45 -19 -45 -47 -1 -34 24 7 36 5 49 -7 21 -19 29 -8 22
29 -6 31 -22 33 -70 12z"/>
<path d="M1570 822 c-19 -16 -22 -24 -16 -55 8 -42 18 -46 82 -32 17 4 21 11
20 40 -2 38 -10 49 -42 59 -14 4 -30 0 -44 -12z m58 -34 c-5 -15 -48 -24 -48
-10 0 14 12 22 33 22 10 0 17 -5 15 -12z"/>
<path d="M65 810 c-8 -13 3 -31 18 -29 30 4 47 -2 47 -16 0 -12 -9 -15 -35
-12 -29 4 -35 1 -33 -12 4 -21 77 -28 89 -9 11 16 11 49 1 65 -10 17 -78 27
-87 13z"/>
<path d="M1572 688 c-14 -18 -13 -88 2 -89 6 -1 23 -2 38 -3 15 -2 32 0 38 4
16 10 16 66 0 85 -15 18 -64 20 -78 3z m58 -32 c0 -8 -5 -18 -11 -22 -14 -8
-33 11 -25 25 10 16 36 13 36 -3z"/>
<path d="M80 683 c-64 -6 -83 -13 -71 -27 7 -8 30 -11 68 -9 73 4 90 10 75 25
-13 13 -23 15 -72 11z"/>
<path d="M129 623 c0 -4 -2 -21 -2 -38 -2 -26 -6 -30 -32 -30 -24 0 -31 5 -33
25 -5 36 -18 45 -31 22 -25 -46 28 -102 83 -88 31 8 55 52 47 85 -6 24 -30 42
-32 24z"/>
<path d="M1626 561 c-4 -5 -22 -7 -41 -4 -49 8 -49 -22 0 -31 21 -4 35 -13 35
-22 0 -10 5 -12 18 -5 9 5 25 12 35 15 19 6 24 26 5 26 -6 0 -19 7 -29 16 -10
9 -19 11 -23 5z"/>
</g>
</svg>
